<?xml version="1.0" encoding="iso-8859-1"?>
<!-- Uploaded to: SVG Repo, www.svgrepo.com, Generator: SVG Repo Mixer Tools -->
<svg fill="#000000" height="800px" width="800px" version="1.1" id="Layer_1" xmlns="http://www.w3.org/2000/svg" xmlns:xlink="http://www.w3.org/1999/xlink" 
	 viewBox="0 0 512.002 512.002" xml:space="preserve">
<g>
	<g>
		<g>
			<path d="M480.177,307.042l-104.466-30.473l-0.441,0.265l-0.282-0.477l-60.69-17.699l-0.591,0.38l-0.424-0.671l-24.444-7.133
				l4.943-16.949l17.779,5.182l144.825-92.16c19.58-5.217,35.081-13.038,44.685-22.607l6.841,10.752L334.115,246.052l39.168,11.423
				L512,175.113v-73.596c0-17.223-16.084-32.318-44.138-42.099V39.725c0-23.181-35.522-35.31-70.621-35.31
				c-35.098,0-70.621,12.129-70.621,35.31v19.694c-28.054,9.781-44.138,24.876-44.138,42.099v100.864l85.045-49.611
				c9.437,1.077,19.341,1.713,29.714,1.713c0.839,0,1.642-0.044,2.481-0.053l-117.239,68.387v59.595l151.985,49.558L480.177,307.042
				z M397.241,22.069c32.856,0,52.966,11.432,52.966,17.655S430.098,57.38,397.241,57.38s-52.966-11.432-52.966-17.655
				S364.385,22.069,397.241,22.069z M344.276,63.859c0.327,0.177,0.706,0.327,1.042,0.503c1.289,0.671,2.595,1.315,3.981,1.924
				c0.556,0.238,1.148,0.459,1.721,0.689c1.307,0.538,2.631,1.059,4.008,1.536c0.512,0.185,1.042,0.344,1.571,0.521
				c1.563,0.512,3.151,0.997,4.785,1.448c0.335,0.088,0.671,0.177,1.015,0.265c10.699,2.825,22.784,4.29,34.842,4.29
				s24.143-1.465,34.843-4.29c0.344-0.088,0.68-0.177,1.015-0.265c1.633-0.45,3.222-0.936,4.785-1.448
				c0.53-0.177,1.059-0.335,1.571-0.521c1.377-0.477,2.701-0.997,4.008-1.536c0.574-0.23,1.165-0.45,1.721-0.689
				c1.386-0.609,2.692-1.253,3.981-1.924c0.335-0.177,0.715-0.327,1.042-0.503V91.56c-3.708,3.619-22.263,9.958-52.966,9.958
				s-49.258-6.338-52.966-9.958V63.859z M397.241,136.828c-55.578,0-97.103-18.644-97.103-35.31
				c0-7.998,10.081-16.693,26.483-23.367V92.69c0,25.741,63.4,26.483,70.621,26.483s70.621-0.742,70.621-26.483V78.151
				c16.402,6.674,26.483,15.369,26.483,23.367C494.345,118.184,452.82,136.828,397.241,136.828z"/>
			<polygon points="396.484,264.239 434.619,275.362 512.002,228.929 512.002,195.649 			"/>
			<polygon points="511.998,289.681 511.998,249.525 457.709,282.098 502.147,295.057 			"/>
			<polygon points="282.483,354.812 282.483,414.875 350.923,377.543 			"/>
			<polygon points="413.166,343.592 282.483,300.981 282.483,336.203 372.127,365.979 			"/>
			<path d="M326.621,461.596v19.509c0,25.741,63.4,26.483,70.621,26.483s70.621-0.742,70.621-26.483v-19.518
				C495.007,452.08,512,436.985,512,419.312v-46.866l-145.752,80.163c-9.207-1.236-17.911-3.081-26.041-5.385l-0.177-0.335
				L512,352.301v-42.514l-225.827,123.18C292.476,444.709,306.829,454.649,326.621,461.596z M344.276,466.636
				c15.678,3.602,33.58,5.641,52.966,5.641c19.377,0,37.279-2.039,52.966-5.632v13.33c-3.708,3.619-22.263,9.957-52.966,9.957
				s-49.258-6.338-52.966-9.957V466.636z"/>
			<path d="M211.862,57.38c-19.474,0-35.31,15.837-35.31,35.31c0,12.226,6.259,23.014,15.731,29.352l-68.696,165.005L54.89,122.042
				c9.472-6.338,15.731-17.126,15.731-29.352c0-19.474-15.837-35.31-35.31-35.31C15.837,57.38,0,73.216,0,92.69
				C0,112.164,15.837,128,35.31,128c0.971,0,1.88-0.212,2.825-0.282l75.891,182.29L62.588,433.576
				c-1.88,4.493,0.247,9.666,4.749,11.538c1.112,0.468,2.26,0.68,3.399,0.68c3.452,0,6.735-2.039,8.148-5.438l44.703-107.388
				l44.703,107.388c1.412,3.399,4.696,5.438,8.148,5.438c1.139,0,2.286-0.212,3.399-0.68c4.502-1.872,6.63-7.044,4.749-11.538
				l-51.438-123.569l75.891-182.29c0.945,0.071,1.854,0.282,2.825,0.282c19.474,0,35.31-15.837,35.31-35.31
				C247.172,73.216,231.336,57.38,211.862,57.38z"/>
		</g>
	</g>
</g>
</svg>